<?xml version="1.0" standalone="no"?>
<!DOCTYPE svg PUBLIC "-//W3C//DTD SVG 20010904//EN"
 "http://www.w3.org/TR/2001/REC-SVG-20010904/DTD/svg10.dtd">
<svg version="1.0" xmlns="http://www.w3.org/2000/svg"
 width="1024.000000pt" height="1024.000000pt" viewBox="0 0 1024.000000 1024.000000"
 preserveAspectRatio="xMidYMid meet">

<g transform="translate(0.000000,1024.000000) scale(0.100000,-0.100000)"
fill="#000000" stroke="none">
<path d="M3746 7707 c-73 -41 -81 -66 -84 -279 l-4 -188 -232 0 c-334 0 -477
-29 -610 -124 -89 -63 -149 -135 -202 -241 -80 -162 -75 -42 -77 -1845 -1
-883 1 -1668 4 -1745 8 -173 35 -264 109 -376 80 -123 184 -203 332 -257 l73
-27 465 -6 c256 -3 1167 -4 2025 -3 1425 1 1565 3 1623 18 266 71 450 247 513
494 18 73 19 129 19 1788 0 1823 1 1773 -46 1895 -52 134 -191 282 -326 348
-141 69 -169 74 -480 79 l-277 4 -3 193 c-3 177 -5 196 -24 221 -46 63 -64 69
-207 72 -122 2 -135 1 -171 -20 -73 -42 -81 -67 -84 -280 l-4 -188 -959 0
-959 0 0 178 c0 164 -2 181 -22 222 -37 72 -83 90 -233 90 -106 0 -125 -3
-159 -23z m3352 -963 c51 -21 90 -61 102 -103 5 -20 10 -129 10 -243 l0 -208
-2092 0 -2093 0 5 227 c5 236 7 249 52 290 59 56 -72 52 2036 53 1734 0 1947
-2 1980 -16z m110 -2287 c-3 -1389 4 -1264 -75 -1324 l-36 -28 -1965 -3 -1965
-2 -44 21 c-23 11 -53 35 -65 52 l-23 32 -5 1248 -5 1247 2093 0 2092 0 -2
-1243z"/>
<path d="M4900 5233 c-8 -3 -25 -15 -37 -26 -23 -20 -23 -25 -23 -248 l0 -227
31 -26 31 -26 220 0 220 0 29 30 30 30 -3 225 c-4 296 22 269 -266 272 -119 1
-224 -1 -232 -4z"/>
<path d="M6060 5227 c-47 -24 -50 -45 -48 -279 4 -287 -20 -262 260 -266 233
-3 259 1 285 51 13 26 15 63 11 239 l-4 209 -27 27 -27 27 -213 3 c-157 2
-218 -1 -237 -11z"/>
<path d="M3699 5201 l-29 -29 0 -217 0 -217 29 -29 29 -29 221 0 c218 0 220 0
248 24 l28 24 0 227 0 227 -28 24 c-28 24 -30 24 -248 24 l-221 0 -29 -29z"/>
<path d="M3699 4141 l-29 -29 0 -217 c0 -219 4 -245 39 -272 11 -9 80 -12 239
-13 l224 0 29 29 29 29 0 205 c0 123 -4 217 -11 236 -20 56 -44 61 -279 61
l-212 0 -29 -29z"/>
<path d="M4870 4141 l-30 -29 0 -222 0 -222 29 -29 29 -29 222 0 222 0 29 29
29 29 0 221 c0 218 0 220 -24 248 l-24 28 -226 3 -226 3 -30 -30z"/>
<path d="M6060 4157 c-45 -23 -50 -47 -50 -274 0 -210 0 -212 24 -240 l24 -28
216 -3 c238 -3 268 3 283 56 5 15 8 115 8 222 0 107 -3 207 -8 222 -14 51 -45
58 -269 58 -143 0 -210 -4 -228 -13z"/>
</g>
</svg>
