<?xml version="1.0" standalone="no"?>
<!DOCTYPE svg PUBLIC "-//W3C//DTD SVG 20010904//EN"
 "http://www.w3.org/TR/2001/REC-SVG-20010904/DTD/svg10.dtd">
<svg version="1.0" xmlns="http://www.w3.org/2000/svg"
 width="1024.000000pt" height="1024.000000pt" viewBox="0 0 1024.000000 1024.000000"
 preserveAspectRatio="xMidYMid meet">

<g transform="translate(0.000000,1024.000000) scale(0.100000,-0.100000)"
fill="#000000" stroke="none">
<path d="M2911 8263 c-70 -24 -120 -79 -143 -157 -10 -32 -13 -678 -13 -2971
l0 -2930 24 -53 c25 -56 62 -93 120 -119 33 -15 217 -18 2200 -25 2408 -9
2231 -14 2311 58 21 19 49 56 61 82 l23 46 0 2306 1 2307 -27 34 c-28 36 -973
988 -1261 1270 l-167 164 -1547 0 c-1176 0 -1555 -3 -1582 -12z m2432 -474
l387 1 0 -602 c0 -566 2 -605 19 -643 26 -55 90 -115 137 -126 22 -5 283 -12
582 -16 l542 -6 0 -1955 0 -1955 -987 6 c-544 4 -1394 7 -1891 7 l-903 0 1
1602 c1 882 5 2074 8 2649 l5 1046 856 -4 c471 -2 1030 -4 1244 -4z m1127
-649 l256 -260 -260 2 -260 3 0 257 c-1 142 1 258 3 258 2 0 119 -117 261
-260z"/>
<path d="M4004 5826 c-97 -45 -156 -155 -134 -251 6 -26 17 -59 25 -74 21 -41
89 -98 132 -111 27 -8 346 -13 1091 -17 986 -5 1055 -4 1098 12 102 39 158
119 158 225 0 74 -22 125 -76 177 -69 67 3 63 -1175 63 l-1068 0 -51 -24z"/>
<path d="M4014 4811 c-175 -79 -192 -315 -30 -416 l49 -30 836 -8 c460 -4 951
-6 1092 -5 l256 3 49 30 c91 57 133 167 104 274 -15 57 -101 145 -156 160 -27
8 -368 11 -1099 11 -1011 0 -1062 -1 -1101 -19z"/>
<path d="M4022 3803 c-46 -16 -104 -69 -129 -117 -8 -16 -18 -55 -20 -87 -5
-49 -2 -67 21 -113 31 -64 79 -108 139 -126 34 -11 191 -13 787 -11 824 3 778
0 841 68 110 118 79 299 -65 376 l-41 22 -745 2 c-647 1 -751 0 -788 -14z"/>
</g>
</svg>
