<?xml version="1.0" standalone="no"?>
<!DOCTYPE svg PUBLIC "-//W3C//DTD SVG 20010904//EN"
 "http://www.w3.org/TR/2001/REC-SVG-20010904/DTD/svg10.dtd">
<svg version="1.0" xmlns="http://www.w3.org/2000/svg"
 width="1024.000000pt" height="1024.000000pt" viewBox="0 0 1024.000000 1024.000000"
 preserveAspectRatio="xMidYMid meet">

<g transform="translate(0.000000,1024.000000) scale(0.100000,-0.100000)"
fill="#000000" stroke="none">
<path d="M7955 7098 c-34 -9 -62 -34 -82 -73 -12 -22 -14 -47 -10 -107 l6 -78
-87 0 c-64 0 -110 7 -172 26 -125 37 -300 50 -463 36 -73 -7 -159 -14 -192
-17 -33 -3 -82 -7 -110 -10 -27 -2 -84 -7 -125 -10 -132 -10 -143 -13 -179
-51 -31 -33 -33 -40 -29 -85 6 -57 34 -93 82 -108 17 -5 76 -17 131 -26 55
-10 183 -35 285 -56 169 -35 195 -38 305 -33 93 3 146 11 235 35 81 22 145 33
218 36 l103 4 -3 -118 -3 -118 -50 -3 c-94 -4 -115 -11 -135 -45 -18 -29 -20
-51 -20 -209 l0 -178 -670 0 -669 0 -6 38 c-12 76 -28 129 -61 197 -104 221
-342 381 -631 424 -112 17 -897 14 -1004 -3 -332 -54 -581 -249 -665 -523 -13
-42 -23 -78 -22 -82 0 -3 0 -16 -1 -28 l-1 -23 -675 0 -675 0 -1 118 c0 64 -4
150 -8 190 -9 98 -26 114 -123 121 l-73 6 -3 118 -3 118 93 -4 c64 -3 120 -13
178 -31 58 -19 126 -31 212 -38 131 -11 148 -9 388 37 112 22 193 37 215 40
11 2 63 11 115 20 82 16 99 22 127 50 76 76 16 199 -98 203 -40 2 -118 8 -551
43 -173 15 -304 4 -437 -36 -59 -17 -109 -25 -163 -25 l-79 0 7 73 c7 81 -5
119 -53 163 -21 20 -37 24 -86 24 -56 0 -62 -2 -98 -39 l-39 -39 0 -92 0 -92
-98 5 c-65 3 -128 13 -192 32 -86 25 -110 28 -260 29 -91 0 -246 -8 -345 -17
-99 -10 -227 -22 -285 -27 -103 -8 -105 -8 -137 -44 -27 -30 -33 -44 -33 -82
0 -39 5 -51 33 -78 27 -28 46 -35 127 -50 52 -10 196 -38 320 -63 210 -42 232
-44 335 -39 61 3 124 8 140 11 45 8 178 43 209 55 15 5 63 10 107 10 l79 0 0
-120 0 -120 -60 0 c-72 0 -113 -18 -129 -57 -7 -17 -10 -92 -10 -198 l1 -170
-53 -5 c-118 -12 -129 -35 -129 -258 0 -183 8 -227 56 -289 42 -55 93 -74 229
-85 66 -5 203 -8 305 -6 163 3 191 6 232 25 53 24 88 71 88 117 0 28 0 28 48
22 26 -4 79 -14 119 -21 39 -8 89 -18 110 -21 21 -3 57 -10 81 -15 40 -9 90
-17 137 -24 181 -25 367 -95 513 -191 45 -31 82 -58 81 -62 0 -4 -35 -24 -77
-44 -206 -99 -379 -296 -480 -548 -46 -114 -66 -196 -93 -378 -11 -75 -29
-195 -39 -267 -11 -71 -22 -148 -25 -170 -3 -22 -17 -117 -30 -212 -31 -211
-31 -216 0 -269 62 -105 182 -119 272 -32 38 36 51 71 57 148 5 60 20 180 36
275 5 33 19 130 30 215 54 409 81 523 156 657 47 84 143 185 216 228 56 33
199 99 202 93 1 -2 12 -57 25 -123 59 -296 149 -475 339 -669 120 -122 306
-235 461 -282 26 -7 94 -23 152 -35 177 -36 403 -16 592 52 268 97 494 294
624 545 71 136 102 231 138 419 10 50 18 91 20 92 1 2 39 -13 85 -32 179 -75
283 -169 365 -333 34 -69 77 -215 89 -307 3 -22 10 -74 16 -115 6 -41 13 -88
15 -105 5 -38 31 -227 44 -320 17 -119 21 -147 31 -240 13 -107 33 -150 88
-189 100 -71 245 -11 268 109 3 18 -6 113 -21 211 -14 99 -33 226 -41 284 -8
58 -17 114 -19 125 -1 11 -6 38 -9 60 -19 137 -36 247 -45 295 -55 319 -232
606 -474 767 -43 29 -100 60 -127 70 -28 10 -50 20 -50 23 0 10 155 108 225
142 66 33 173 72 226 84 74 15 197 37 383 69 116 20 220 38 232 41 18 5 22 0
27 -30 9 -57 41 -92 100 -113 45 -16 86 -18 322 -18 349 0 398 14 462 129 28
50 28 54 31 239 l4 188 -40 39 c-36 36 -45 40 -90 40 l-51 0 -3 185 -3 185
-28 27 c-23 24 -38 29 -100 33 l-72 5 -3 118 -3 117 76 0 c54 0 103 -8 173
-29 166 -49 322 -62 457 -36 50 9 124 23 165 30 41 8 109 20 150 29 41 8 95
18 120 22 25 4 47 8 50 9 3 1 27 5 53 9 89 15 136 91 100 163 -34 70 -50 75
-280 94 -115 9 -246 21 -293 25 -47 5 -152 8 -235 8 -133 -1 -162 -5 -250 -29
-67 -19 -131 -30 -194 -33 l-94 -3 6 76 c8 88 -6 132 -52 164 -30 21 -86 30
-126 19z m-2127 -969 c31 -6 58 -20 74 -37 38 -41 41 -60 13 -88 l-24 -24
-773 0 c-852 0 -818 -3 -818 60 0 39 55 83 112 91 79 11 1364 10 1416 -2z
m-508 -568 c390 -104 639 -495 565 -886 -57 -304 -268 -531 -573 -617 -107
-30 -275 -30 -387 0 -252 68 -463 257 -539 482 -47 141 -57 340 -22 465 74
270 287 481 558 554 96 26 302 27 398 2z"/>
<path d="M4953 5302 c-189 -64 -310 -201 -350 -398 -23 -111 -8 -209 47 -319
100 -202 288 -308 513 -292 141 11 264 72 353 177 184 218 174 513 -24 707
-145 142 -349 189 -539 125z m101 -261 c39 -26 55 -57 56 -109 0 -54 -47 -110
-100 -118 -74 -12 -150 49 -150 119 0 99 113 161 194 108z"/>
</g>
</svg>
