<?xml version="1.0" standalone="no"?>
<!DOCTYPE svg PUBLIC "-//W3C//DTD SVG 20010904//EN"
 "http://www.w3.org/TR/2001/REC-SVG-20010904/DTD/svg10.dtd">
<svg version="1.0" xmlns="http://www.w3.org/2000/svg"
 width="1024.000000pt" height="1024.000000pt" viewBox="0 0 1024.000000 1024.000000"
 preserveAspectRatio="xMidYMid meet">

<g transform="translate(0.000000,1024.000000) scale(0.100000,-0.100000)"
fill="#000000" stroke="none">
<path d="M5075 7873 c-11 -3 -236 -111 -500 -240 -264 -130 -721 -352 -1015
-495 -431 -209 -542 -266 -572 -297 -70 -73 -68 -51 -68 -931 0 -806 5 -941
41 -1185 85 -576 364 -1121 803 -1573 313 -322 604 -528 1077 -762 221 -110
270 -124 345 -100 69 22 415 196 544 273 420 252 775 572 1045 941 287 395
452 804 521 1292 15 102 18 244 21 1007 4 796 3 893 -12 943 -29 100 -47 113
-470 317 -209 102 -612 298 -895 437 -283 139 -571 279 -639 312 -117 56 -182
73 -226 61z m1073 -1677 c15 -8 82 -70 150 -139 114 -116 122 -126 122 -163 0
-38 -12 -50 -498 -539 -274 -275 -635 -639 -802 -808 -168 -170 -317 -315
-332 -323 -15 -8 -44 -14 -65 -14 -36 0 -53 15 -456 418 -230 229 -425 430
-434 446 -29 55 -14 81 130 224 137 135 153 145 200 121 12 -6 145 -133 295
-283 l272 -271 668 666 c367 367 674 669 682 672 25 9 40 8 68 -7z"/>
</g>
</svg>
