<?xml version="1.0" standalone="no"?>
<!DOCTYPE svg PUBLIC "-//W3C//DTD SVG 20010904//EN"
 "http://www.w3.org/TR/2001/REC-SVG-20010904/DTD/svg10.dtd">
<svg version="1.0" xmlns="http://www.w3.org/2000/svg"
 width="1024.000000pt" height="1024.000000pt" viewBox="0 0 1024.000000 1024.000000"
 preserveAspectRatio="xMidYMid meet">

<g transform="translate(0.000000,1024.000000) scale(0.100000,-0.100000)"
fill="#000000" stroke="none">
<path d="M4836 7545 c-965 -117 -1773 -836 -2006 -1787 -52 -213 -64 -321 -64
-573 0 -231 5 -285 45 -495 49 -248 181 -569 326 -790 299 -455 746 -801 1253
-971 675 -225 1412 -129 2011 262 599 391 984 1018 1069 1739 24 201 8 534
-35 743 -145 701 -604 1306 -1238 1631 -336 172 -696 257 -1080 255 -95 -1
-221 -7 -281 -14z m521 -495 c435 -58 865 -285 1148 -608 416 -474 571 -1122
415 -1732 -116 -456 -418 -866 -822 -1116 -469 -291 -1022 -356 -1547 -182
-485 161 -881 504 -1101 953 -139 284 -199 570 -187 890 24 616 335 1176 837
1505 246 161 482 247 810 294 58 8 375 5 447 -4z"/>
<path d="M4975 6470 c-317 -50 -582 -266 -672 -548 -29 -92 -43 -243 -23 -267
10 -13 47 -15 230 -15 252 0 239 -5 266 105 43 181 167 278 354 279 100 0 161
-22 223 -82 70 -68 91 -114 95 -217 3 -71 0 -100 -15 -138 -26 -66 -93 -154
-161 -213 -112 -96 -245 -230 -288 -290 -81 -114 -124 -249 -124 -394 0 -111
-3 -110 244 -110 l205 0 19 25 c12 15 25 56 32 98 26 159 10 137 267 375 238
219 323 388 323 642 0 191 -54 346 -168 479 -96 113 -259 211 -417 252 -92 24
-295 33 -390 19z"/>
<path d="M5040 4341 c-154 -50 -228 -179 -187 -322 52 -175 294 -232 445 -104
64 54 92 145 72 238 -23 112 -116 187 -239 193 -36 2 -77 0 -91 -5z"/>
</g>
</svg>
