<?xml version="1.0" standalone="no"?>
<!DOCTYPE svg PUBLIC "-//W3C//DTD SVG 20010904//EN"
 "http://www.w3.org/TR/2001/REC-SVG-20010904/DTD/svg10.dtd">
<svg version="1.0" xmlns="http://www.w3.org/2000/svg"
 width="1024.000000pt" height="1024.000000pt" viewBox="0 0 1024.000000 1024.000000"
 preserveAspectRatio="xMidYMid meet">

<g transform="translate(0.000000,1024.000000) scale(0.100000,-0.100000)"
fill="#B9BDC0" stroke="none">
<path d="M4982 7979 c-597 -53 -1117 -487 -1286 -1071 -59 -204 -72 -488 -31
-683 64 -306 192 -543 414 -766 227 -227 454 -350 771 -416 130 -27 420 -24
557 5 497 107 893 442 1078 910 132 335 139 730 20 1062 -162 451 -567 812
-1039 926 -56 13 -155 28 -221 34 -132 11 -131 11 -263 -1z"/>
<path d="M3951 4825 c-603 -183 -1057 -553 -1296 -1057 -98 -208 -139 -376
-156 -634 -23 -374 31 -570 202 -728 66 -61 173 -118 257 -135 37 -8 671 -11
2165 -11 2343 0 2173 -5 2310 67 136 71 247 217 293 383 27 95 27 482 0 625
-64 351 -219 645 -480 914 -269 276 -584 459 -985 572 -58 16 -118 29 -135 29
-17 0 -67 -13 -111 -29 -359 -130 -448 -157 -630 -187 -132 -21 -395 -21 -535
0 -159 24 -314 69 -499 142 -205 82 -265 89 -400 49z"/>
</g>
</svg>
